# xmcd
#
# Track frame offsets: 
#        150
#        13501
#        33714
#        48547
#        57774
#        73527
#        97828
#        112400
#        126514
#        152357
#        178198
#        196765
#        208782
#        229962
#        252886
#        271298
#        285670
#
# Disc length: 3982 seconds
#
# Revision: 0
# Processed by: cddbd v1.5.2PL0 Copyright (c) Steve Scherf et al.
# Submitted via: ExactAudioCopy v0.99pb5
#
DISCID=f80f8c11
DTITLE=Alison Brown - Best Of The Vanguard Years
DYEAR=2002
DGENRE=Bluegrass
TTITLE0=Wolf Moon
TTITLE1=Chicken Road
TTITLE2=Without Anastasia
TTITLE3=Mambo Banjo
TTITLE4=Shoot The Dog
TTITLE5=Cara`s Way The Little People
TTITLE6=G Bop
TTITLE7=Waltzing Wizh Tula
TTITLE8=The Dalai Camel
TTITLE9=Deep North
TTITLE10=Saint Genevieve
TTITLE11=Leaving Cottondale
TTITLE12=Lorelei
TTITLE13=Look Left
TTITLE14=Hello Mendocino
TTITLE15=The Inspector
TTITLE16=Simple Pleasures
EXTD=
EXTT0=
EXTT1=
EXTT2=
EXTT3=
EXTT4=
EXTT5=
EXTT6=
EXTT7=
EXTT8=
EXTT9=
EXTT10=
EXTT11=
EXTT12=
EXTT13=
EXTT14=
EXTT15=
EXTT16=
PLAYORDER=
